<svg width="24" height="28" viewBox="0 0 24 28" fill="none" xmlns="http://www.w3.org/2000/svg">
<path d="M0 5.14287C0 4.19466 0.766071 3.42859 1.71429 3.42859H22.2857C23.2339 3.42859 24 4.19466 24 5.14287C24 6.09109 23.2339 6.85716 22.2857 6.85716H1.71429C0.766071 6.85716 0 6.09109 0 5.14287ZM0 13.7143C0 12.7661 0.766071 12 1.71429 12H22.2857C23.2339 12 24 12.7661 24 13.7143C24 14.6625 23.2339 15.4286 22.2857 15.4286H1.71429C0.766071 15.4286 0 14.6625 0 13.7143ZM24 22.2857C24 23.2339 23.2339 24 22.2857 24H1.71429C0.766071 24 0 23.2339 0 22.2857C0 21.3375 0.766071 20.5714 1.71429 20.5714H22.2857C23.2339 20.5714 24 21.3375 24 22.2857Z" fill="black"/>
</svg>
