<svg width="126" height="125" viewBox="0 0 126 125" fill="none" xmlns="http://www.w3.org/2000/svg">
<circle cx="63" cy="62.5" r="62.5" fill="#314747"/>
<path d="M27.5 80.7215C27.5 77.6203 27.5003 69.2025 27.5 68.7595C27.4997 68.3165 28.1492 66.7869 28.8291 65.6582C29.6522 64.2919 31.4873 62.557 31.4873 62.557C31.4873 62.557 31.1225 57.9439 31.4873 55.0253C31.8413 52.1939 32.2393 50.6016 33.2595 47.9367C34.0894 45.7689 34.6676 44.5761 35.9177 42.6203C37.5045 40.1377 38.6557 38.8908 40.7911 36.8608C42.8478 34.9056 44.0839 33.8331 46.5506 32.4304C48.9804 31.0487 50.5374 30.191 53.1964 29.3291C55.9109 28.4493 57.1838 28 60.2848 28C63.3859 28 64.7156 28 67.3736 28.443C70.0317 28.8861 72.1102 29.5097 74.9051 30.6582C78.1455 31.9898 79.6848 32.9206 82.4367 35.0886C84.6491 36.8316 85.997 38.2031 87.7532 40.4051C89.4927 42.5861 91.0683 45.7215 91.2975 46.6076C91.5266 47.4937 92.6959 50.6618 93.0698 53.2532C93.3948 55.5055 93.5127 57.2405 93.5127 59.0127V63.8861L95.2848 65.6582C95.8039 66.1773 96.1822 66.3937 96.6139 66.9873C97.069 67.6131 97.5 68.7595 97.5 68.7595V80.7215C97.5 80.7215 96.2301 84.2777 94.3987 85.5949C93.3291 86.3644 92.6151 86.9241 91.2975 86.9241H89.0823C89.0823 86.9241 88.8526 88.0155 88.6392 88.6962C88.3606 89.5853 88.2443 90.1196 87.7532 90.9114C87.1083 91.9511 86.4719 92.3363 85.538 93.1266C84.8776 93.6854 84.5243 94.0397 83.7658 94.4557C82.8064 94.9819 81.1076 95.3418 81.1076 95.3418H69.1456C69.1456 95.3418 68.7152 96.2449 68.2595 96.6709C67.6942 97.1993 66.4873 97.557 66.4873 97.557H58.0696C58.0696 97.557 56.2975 96.6709 55.8544 95.7848C55.4114 94.8987 55.4453 94.7252 55.4114 94.0127C55.3694 93.1314 55.4114 92.6835 55.8544 91.7975C56.2975 90.9114 58.0696 90.4684 58.0696 90.4684H66.4873C66.4873 90.4684 67.6942 90.826 68.2595 91.3544C68.7152 91.7804 69.1456 92.6835 69.1456 92.6835H81.1076C81.9935 92.6835 82.7866 91.9776 83.7658 91.3544C84.4957 90.89 84.9666 90.6749 85.538 90.0253C86.4083 89.036 86.8671 86.9241 86.8671 86.9241H84.6519C83.9179 86.9241 83.3226 86.038 83.3228 85.5949C83.323 85.1519 83.323 66.1013 83.3228 65.6582C83.3226 65.2152 83.7538 64.5118 84.2089 63.8861C84.6406 63.2924 85.538 62.557 85.538 62.557L84.6519 56.7975C84.3059 54.5482 82.9372 51.4709 82.4367 50.5949C81.9362 49.719 81.6449 49.2336 81.1076 48.3797C80.4431 47.3238 80.1187 46.6927 79.3354 45.7215C78.4365 44.6068 77.8119 44.0589 76.7577 43.1339L76.6772 43.0633C75.3768 41.9221 74.6257 41.2797 73.1329 40.4051C71.6627 39.5436 70.7657 39.1611 69.1456 38.6329C67.629 38.1385 66.7431 37.928 65.1582 37.7468C63.4393 37.5504 62.4498 37.578 60.7279 37.7468C58.9718 37.919 57.99 38.1344 56.2975 38.6329C54.5099 39.1594 53.4871 39.4842 51.8671 40.4051C50.363 41.2601 49.6348 41.9354 48.3228 43.0633L48.2781 43.1017C46.8212 44.3541 45.9738 45.0825 44.7785 46.6076C43.5338 48.1956 42.6303 49.2595 41.6772 51.038C40.5071 53.2215 40.0657 54.3949 39.462 56.7975C38.9123 58.9853 39.019 62.557 39.019 62.557C39.019 62.557 40.3479 63.443 40.7911 63.8861C41.2344 64.3291 41.6772 64.7722 41.6772 65.6582V85.5949C41.6772 86.038 40.1796 86.9241 39.019 86.9241H34.5886C33.2217 86.9241 31.9912 86.4109 30.1584 85.5949C28.0976 84.6774 27.5 83.8228 27.5 80.7215Z" fill="#FFD700"/>
<path d="M50.64 86.5076C48.1038 87.6857 45.4773 85.0592 46.6554 82.523L50.3339 74.6036C51.2119 72.7134 53.7023 72.2724 55.176 73.7461L59.4169 77.9869C60.8906 79.4607 60.4496 81.9511 58.5594 82.8291L50.64 86.5076Z" fill="#FFD700"/>
<circle cx="62.5" cy="68.3164" r="17.2785" fill="#FFD700"/>
<g clip-path="url(#clip0_149_7)">
<path d="M53.1962 62.5016C53.1962 61.8583 53.7618 61.3386 54.462 61.3386H69.6519C70.352 61.3386 70.9177 61.8583 70.9177 62.5016C70.9177 63.1449 70.352 63.6646 69.6519 63.6646H54.462C53.7618 63.6646 53.1962 63.1449 53.1962 62.5016ZM53.1962 68.3165C53.1962 67.6732 53.7618 67.1535 54.462 67.1535H69.6519C70.352 67.1535 70.9177 67.6732 70.9177 68.3165C70.9177 68.9597 70.352 69.4794 69.6519 69.4794H54.462C53.7618 69.4794 53.1962 68.9597 53.1962 68.3165ZM70.9177 74.1313C70.9177 74.7746 70.352 75.2943 69.6519 75.2943H54.462C53.7618 75.2943 53.1962 74.7746 53.1962 74.1313C53.1962 73.4881 53.7618 72.9684 54.462 72.9684H69.6519C70.352 72.9684 70.9177 73.4881 70.9177 74.1313Z" fill="#314747"/>
</g>
<defs>
<clipPath id="clip0_149_7">
<rect width="17.7215" height="18.6076" fill="white" transform="translate(53.1962 59.0127)"/>
</clipPath>
</defs>
</svg>
