<svg width="126" height="125" viewBox="0 0 126 125" fill="none" xmlns="http://www.w3.org/2000/svg">
<circle cx="63" cy="62.5" r="62.5" fill="#314747"/>
<path d="M84.1581 68.6368C85.1059 68.8743 85.9206 69.4785 86.4229 70.3166C86.9252 71.1547 87.074 72.158 86.8366 73.1058L84.2945 83.2632H86.9471V79.5789C86.9471 78.6018 87.3353 77.6647 88.0262 76.9738C88.7172 76.2829 89.6543 75.8947 90.6314 75.8947C91.6086 75.8947 92.5457 76.2829 93.2366 76.9738C93.9276 77.6647 94.3157 78.6018 94.3157 79.5789V83.2632C95.2928 83.2632 96.23 83.6513 96.9209 84.3422C97.6118 85.0332 98 85.9703 98 86.9474C98 87.9245 97.6118 88.8616 96.9209 89.5525C96.23 90.2434 95.2928 90.6316 94.3157 90.6316V94.3158C94.3157 95.2929 93.9276 96.23 93.2366 96.9209C92.5457 97.6118 91.6086 98 90.6314 98C89.6543 98 88.7172 97.6118 88.0262 96.9209C87.3353 96.23 86.9471 95.2929 86.9471 94.3158V90.6316H79.5786C79.0189 90.6314 78.4667 90.5038 77.9637 90.2584C77.4608 90.0129 77.0204 89.6561 76.6759 89.2151C76.3315 88.774 76.092 88.2603 75.9757 87.7129C75.8594 87.1655 75.8694 86.5988 76.0048 86.0558L79.6891 71.3189C79.9258 70.3713 80.5291 69.5564 81.3665 69.0535C82.2038 68.5505 83.2103 68.4007 84.1581 68.6368ZM66.6836 68.5263C69.022 68.526 71.2731 69.4151 72.9802 71.0133C74.6872 72.6115 75.7225 74.7992 75.8759 77.1326L75.8943 77.7368V78.9342C75.8943 81.1447 75.1943 83.2853 73.9011 85.0611L73.3853 85.7058L69.1705 90.6316H72.21C73.149 90.6326 74.0523 90.9922 74.7351 91.6368C75.4179 92.2814 75.8288 93.1625 75.8839 94.0999C75.9389 95.0373 75.6339 95.9603 75.0312 96.6804C74.4285 97.4005 73.5735 97.8633 72.6411 97.9742L72.21 98H61.1571C60.4926 98.0003 59.8404 97.821 59.2695 97.4809C58.6987 97.1408 58.2304 96.6526 57.9143 96.0681C57.5983 95.4836 57.4462 94.8245 57.4742 94.1605C57.5022 93.4966 57.7092 92.8527 58.0734 92.2968L58.3608 91.9174L67.7925 80.9126C68.1682 80.4738 68.411 79.9371 68.4925 79.3653L68.5257 78.9342V77.7368C68.5257 77.2483 68.3316 76.7797 67.9862 76.4343C67.6407 76.0888 67.1721 75.8947 66.6836 75.8947C66.195 75.8947 65.7264 76.0888 65.381 76.4343C65.0355 76.7797 64.8414 77.2483 64.8414 77.7368C64.8414 78.714 64.4533 79.6511 63.7623 80.342C63.0714 81.0329 62.1343 81.4211 61.1571 81.4211C60.18 81.4211 59.2429 81.0329 58.552 80.342C57.861 79.6511 57.4728 78.714 57.4728 77.7368C57.4728 75.2941 58.4433 72.9513 60.1706 71.224C61.8979 69.4967 64.2407 68.5263 66.6836 68.5263ZM61.1571 28C76.6127 28 89.5888 38.5737 93.2694 52.8684C93.5137 53.8148 93.372 54.8194 92.8756 55.6613C92.3791 56.5032 91.5686 57.1134 90.6222 57.3576C89.6759 57.6019 88.6712 57.4603 87.8293 56.9638C86.9874 56.4674 86.3772 55.6569 86.1329 54.7105C85.0685 50.5958 83.0036 46.8078 80.1219 43.6837C77.2402 40.5595 73.6311 38.196 69.6154 36.8033C65.5998 35.4106 61.3022 35.032 57.1049 35.7011C52.9076 36.3701 48.9407 38.0661 45.5571 40.6383C42.1735 43.2104 39.4781 46.5789 37.7106 50.4442C35.943 54.3094 35.1582 58.5516 35.4259 62.7933C35.6936 67.0351 37.0055 71.1449 39.245 74.7573C41.4844 78.3697 44.582 81.3726 48.2621 83.4989C49.0641 84.0087 49.638 84.8086 49.8641 85.7316C50.0902 86.6545 49.9509 87.6292 49.4753 88.4519C48.9998 89.2745 48.2248 89.8817 47.3121 90.1464C46.3995 90.4112 45.4199 90.3131 44.5778 89.8726C38.2568 86.2229 33.3168 80.5894 30.5237 73.846C27.7307 67.1026 27.2407 59.6261 29.1299 52.5759C31.0191 45.5257 35.1817 39.2958 40.9724 34.8524C46.763 30.409 53.8581 28.0003 61.1571 28ZM61.1571 42.7368C62.0595 42.737 62.9305 43.0683 63.6049 43.6679C64.2792 44.2675 64.71 45.0938 64.8156 45.99L64.8414 46.4211V61.1579C64.8413 62.0603 64.51 62.9312 63.9103 63.6056C63.3107 64.2799 62.4844 64.7107 61.5882 64.8163L61.1571 64.8421H53.7886C52.8495 64.8411 51.9463 64.4815 51.2635 63.8369C50.5806 63.1923 50.1697 62.3112 50.1147 61.3738C50.0597 60.4364 50.3647 59.5133 50.9674 58.7932C51.5701 58.0732 52.425 57.6104 53.3575 57.4995L53.7886 57.4737H57.4728V46.4211C57.4728 45.4439 57.861 44.5068 58.552 43.8159C59.2429 43.125 60.18 42.7368 61.1571 42.7368Z" fill="#FFD700"/>
</svg>
