<svg width="126" height="125" viewBox="0 0 126 125" fill="none" xmlns="http://www.w3.org/2000/svg">
<circle cx="63" cy="62.5" r="62.5" fill="#314747"/>
<path d="M43.7525 51.6177C46.0735 51.6177 48.2994 50.6896 49.9406 49.0376C51.5818 47.3857 52.5038 45.1451 52.5038 42.8088C52.5038 40.4726 51.5818 38.232 49.9406 36.5801C48.2994 34.9281 46.0735 34 43.7525 34C41.4315 34 39.2055 34.9281 37.5643 36.5801C35.9231 38.232 35.0011 40.4726 35.0011 42.8088C35.0011 45.1451 35.9231 47.3857 37.5643 49.0376C39.2055 50.6896 41.4315 51.6177 43.7525 51.6177ZM84.0088 51.6177C86.3298 51.6177 88.5557 50.6896 90.1969 49.0376C91.8381 47.3857 92.7601 45.1451 92.7601 42.8088C92.7601 40.4726 91.8381 38.232 90.1969 36.5801C88.5557 34.9281 86.3298 34 84.0088 34C81.6877 34 79.4618 34.9281 77.8206 36.5801C76.1794 38.232 75.2574 40.4726 75.2574 42.8088C75.2574 45.1451 76.1794 47.3857 77.8206 49.0376C79.4618 50.6896 81.6877 51.6177 84.0088 51.6177ZM28 66.89C28 68.1783 29.0502 69.2354 30.3301 69.2354H53.7509C50.8411 66.6478 49.0142 62.871 49.0142 58.6648C49.0142 57.8279 49.0908 57.0131 49.2221 56.2093C47.7343 55.5156 46.0825 55.1412 44.3432 55.1412H39.6721C33.2289 55.1412 28 60.4045 28 66.89ZM63.0055 69.2354C65.6309 69.2354 68.0266 68.2664 69.8644 66.6698C70.1378 66.2624 70.4332 65.866 70.7395 65.4916C71.0349 65.1283 71.363 64.82 71.724 64.5777C72.8508 62.882 73.5071 60.856 73.5071 58.6648C73.5071 52.8289 68.8033 48.0942 63.0055 48.0942C57.2077 48.0942 52.5038 52.8289 52.5038 58.6648C52.5038 64.5006 57.2077 69.2354 63.0055 69.2354ZM70.1597 75.864C69.033 75.2144 68.1797 74.0802 67.8844 72.7589H56.5842C48.5329 72.7589 42.0022 79.3325 42.0022 87.4367C42.0022 89.0553 43.304 90.3766 44.923 90.3766H77.7953C77.5656 89.804 77.4452 89.1764 77.4452 88.5708V88.2405C77.303 88.1634 77.1499 88.0753 77.0077 87.9872L76.7232 88.1524C74.8854 89.2205 72.2929 89.0333 70.7395 87.0843C70.2472 86.4677 69.7987 85.818 69.383 85.1464L69.3721 85.1243L69.3612 85.1023L69.0986 84.6509L69.0877 84.6288L69.0767 84.6068C68.7048 83.9241 68.3766 83.2194 68.0922 82.4817C67.1952 80.1473 68.3329 77.791 70.1707 76.7229L70.466 76.5577V76.0512L70.1707 75.8861L70.1597 75.864ZM86.3388 55.1412H81.6787C79.9394 55.1412 78.2875 55.5266 76.7998 56.2093C76.942 57.0021 77.0077 57.8279 77.0077 58.6648C77.0077 60.5807 76.6248 62.3975 75.9466 64.0602C76.22 64.1593 76.4826 64.2804 76.7232 64.4236L77.0077 64.5887C77.1499 64.5006 77.2921 64.4125 77.4452 64.3355V64.0051C77.4452 61.869 78.9001 59.6998 81.3615 59.3144C82.2257 59.1823 83.1117 59.1052 84.0088 59.1052C84.9058 59.1052 85.7918 59.1713 86.656 59.3144C89.1174 59.6998 90.5723 61.869 90.5723 64.0051V64.3355C90.7145 64.4125 90.8676 64.5006 91.0098 64.5887L91.2943 64.4236C93.132 63.3555 95.7246 63.5427 97.278 65.4916C97.5296 65.7999 97.7703 66.1303 98 66.4496C97.7703 60.1623 92.6398 55.1412 86.3388 55.1412ZM96.3263 73.1884C97.0155 72.792 97.3655 71.9661 97.0702 71.2064C96.8404 70.6008 96.567 70.0172 96.2607 69.4556L96.0091 69.0152C95.6699 68.4536 95.298 67.9251 94.8933 67.4186C94.3901 66.7909 93.504 66.6808 92.8148 67.0882L92.4976 67.2754C91.4912 67.859 90.266 67.7159 89.2596 67.1323C88.2532 66.5487 87.4984 65.5357 87.4984 64.3685V63.9941C87.4984 63.1903 86.9623 62.4746 86.1747 62.3535C85.4637 62.2434 84.7417 62.1883 83.9978 62.1883C83.2539 62.1883 82.532 62.2434 81.8209 62.3535C81.0333 62.4746 80.4973 63.1903 80.4973 63.9941V64.3685C80.4973 65.5357 79.7425 66.5487 78.7361 67.1323C77.7296 67.7159 76.5045 67.859 75.498 67.2754L75.1808 67.0882C74.4916 66.6918 73.6056 66.8019 73.1024 67.4186C72.6976 67.9251 72.3257 68.4646 71.9866 69.0262L71.735 69.4556C71.4287 70.0172 71.1552 70.6008 70.9255 71.2064C70.641 71.9551 70.9802 72.7809 71.6693 73.1773L71.9866 73.3645C72.993 73.9481 73.4852 75.1043 73.4852 76.2714C73.4852 77.4386 72.993 78.5948 71.9866 79.1784L71.6584 79.3656C70.9692 79.762 70.6192 80.5878 70.9145 81.3365C71.1442 81.9421 71.4177 82.5147 71.724 83.0763L71.9866 83.5277C72.3147 84.0893 72.6867 84.6178 73.0914 85.1243C73.5946 85.752 74.4807 85.8621 75.1699 85.4547L75.4871 85.2675C76.4935 84.6839 77.7187 84.827 78.7251 85.4106C79.7315 85.9942 80.4863 87.0072 80.4863 88.1744V88.5488C80.4863 89.3526 81.0223 90.0683 81.81 90.1894C82.521 90.2995 83.243 90.3546 83.9869 90.3546C84.7307 90.3546 85.4527 90.2995 86.1638 90.1894C86.9514 90.0683 87.4874 89.3526 87.4874 88.5488V88.1744C87.4874 87.0072 88.2422 85.9942 89.2486 85.4106C90.255 84.827 91.4802 84.6839 92.4866 85.2675L92.8039 85.4547C93.493 85.8511 94.3791 85.741 94.8823 85.1243C95.2871 84.6178 95.659 84.0893 95.9872 83.5277L96.2497 83.0653C96.556 82.5037 96.8295 81.9311 97.0592 81.3255C97.3436 80.5768 97.0045 79.7509 96.3154 79.3545L95.9872 79.1674C94.9808 78.5838 94.4885 77.4276 94.4885 76.2604C94.4885 75.0933 94.9808 73.9371 95.9872 73.3535L96.3154 73.1663L96.3263 73.1884ZM79.6331 76.2825C79.6331 75.1143 80.0941 73.9941 80.9147 73.1681C81.7353 72.3421 82.8482 71.878 84.0088 71.878C85.1693 71.878 86.2822 72.3421 87.1028 73.1681C87.9234 73.9941 88.3844 75.1143 88.3844 76.2825C88.3844 77.4506 87.9234 78.5709 87.1028 79.3969C86.2822 80.2228 85.1693 80.6869 84.0088 80.6869C82.8482 80.6869 81.7353 80.2228 80.9147 79.3969C80.0941 78.5709 79.6331 77.4506 79.6331 76.2825Z" fill="#FFD700"/>
</svg>
