<svg width="125" height="125" viewBox="0 0 125 125" fill="none" xmlns="http://www.w3.org/2000/svg">
<circle cx="62.5" cy="62.5" r="62.5" fill="#314747"/>
<path d="M82.1476 98.0059H67.1476C65.5814 97.9441 65.1781 97.4743 65.1476 96.0059C65.0546 89.5034 64.8679 79.5967 65.1476 78.0059C64.7403 77.0353 71.6107 71.4986 76.1476 68.0059C77.551 66.8561 78.4014 66.2666 80.6476 66.5059C84.8637 66.6191 87.8038 68.6688 86.6476 69.5059C85.4914 70.3429 77.1089 78.6336 76.6476 79.5059C76.1863 80.3781 76.2632 80.526 77.1476 81.5059C78.0319 82.4857 78.527 82.3436 79.1476 82.0059L89.1476 72.0059V50.0059C89.6959 47.2548 92.647 46.1022 93.6476 46.0059C94.6482 45.9096 98.2576 46.9889 98.1476 50.0059V73.0059C98.1033 75.023 97.7529 76.1272 96.1476 78.0059L84.1476 90.0059V96.0059C84.0716 97.4928 83.6576 97.922 82.1476 98.0059Z" fill="#FFD700"/>
<path d="M43.0024 98.0059H58.0024C59.5686 97.9441 59.9719 97.4743 60.0024 96.0059C60.0954 89.5034 60.2822 79.5967 60.0024 78.0059C60.4097 77.0353 53.5393 71.4986 49.0024 68.0059C47.599 66.8561 46.7486 66.2666 44.5024 66.5059C40.2863 66.6191 37.3462 68.6688 38.5024 69.5059C39.6586 70.3429 48.0412 78.6336 48.5024 79.5059C48.9637 80.3781 48.8868 80.526 48.0024 81.5059C47.1181 82.4857 46.623 82.3436 46.0024 82.0059L36.0024 72.0059V50.0059C35.4541 47.2548 32.503 46.1022 31.5024 46.0059C30.5019 45.9096 26.8924 46.9889 27.0024 50.0059V73.0059C27.0467 75.023 27.3972 76.1272 29.0024 78.0059L41.0024 90.0059V96.0059C41.0784 97.4928 41.4925 97.922 43.0024 98.0059Z" fill="#FFD700"/>
<path d="M73.2237 64H51.2237C51.2237 64 50.1603 63.9366 49.7237 63.5C49.287 63.0634 49.2237 62.5 49.2237 62C49.2237 61.5 48.7203 57.0834 49.2237 54C49.4831 52.4109 49.6256 51.737 50.2237 50C50.8218 48.263 53.7237 45.5 53.7237 45.5C53.7237 45.5 55.7601 46.9201 57.2237 47.5C59.2532 48.3042 60.5422 48.5847 62.7237 48.5C64.5225 48.4301 65.5512 48.1661 67.2237 47.5C68.6862 46.9175 70.7237 45.5 70.7237 45.5C70.7237 45.5 73.7237 48.5 74.2237 50C74.7237 51.5 74.9642 52.4109 75.2237 54C75.7271 57.0834 75.3851 61 75.2237 62C75.0622 63 75.1603 63.0634 74.7237 63.5C74.287 63.9366 73.2237 64 73.2237 64Z" fill="#FFD700"/>
<circle cx="62.2237" cy="36" r="9" fill="#FFD700"/>
</svg>
